<svg width="50" height="54" viewBox="0 0 50 54" fill="none" xmlns="http://www.w3.org/2000/svg">
<path d="M24 2.57734C24.6188 2.22007 25.3812 2.22007 26 2.57734L45.6506 13.9227C46.2694 14.2799 46.6506 14.9402 46.6506 15.6547V38.3453C46.6506 39.0598 46.2694 39.7201 45.6506 40.0773L26 51.4227C25.3812 51.7799 24.6188 51.7799 24 51.4227L4.34936 40.0773C3.73056 39.7201 3.34937 39.0598 3.34937 38.3453V15.6547C3.34937 14.9402 3.73056 14.2799 4.34937 13.9226L24 2.57734Z" fill="url(#paint0_radial_1_17)"/>
<path d="M24 2.57734C24.6188 2.22007 25.3812 2.22007 26 2.57734L45.6506 13.9227C46.2694 14.2799 46.6506 14.9402 46.6506 15.6547V38.3453C46.6506 39.0598 46.2694 39.7201 45.6506 40.0773L26 51.4227C25.3812 51.7799 24.6188 51.7799 24 51.4227L4.34936 40.0773C3.73056 39.7201 3.34937 39.0598 3.34937 38.3453V15.6547C3.34937 14.9402 3.73056 14.2799 4.34937 13.9226L24 2.57734Z" stroke="black" stroke-width="3"/>
<path d="M24.5 3.44337C24.8094 3.26473 25.1906 3.26473 25.5 3.44337L45.1506 14.7887C45.46 14.9673 45.6506 15.2974 45.6506 15.6547V38.3453C45.6506 38.7026 45.46 39.0327 45.1506 39.2113L25.5 50.5566C25.1906 50.7353 24.8094 50.7353 24.5 50.5566L4.84936 39.2113C4.53996 39.0327 4.34937 38.7026 4.34937 38.3453V15.6547C4.34937 15.2974 4.53996 14.9673 4.84937 14.7887L24.5 3.44337Z" stroke="black" stroke-width="3"/>
<path d="M24.5 13.4434C24.8094 13.2647 25.1906 13.2647 25.5 13.4434L36.4904 19.7887C36.7998 19.9673 36.9904 20.2974 36.9904 20.6547V33.3453C36.9904 33.7026 36.7998 34.0327 36.4904 34.2113L25.5 40.5566C25.1906 40.7353 24.8094 40.7353 24.5 40.5566L13.5096 34.2113L13.0096 35.0773L13.5096 34.2113C13.2002 34.0327 13.0096 33.7026 13.0096 33.3453V20.6547C13.0096 20.2974 13.2002 19.9673 13.5096 19.7887L24.5 13.4434Z" stroke="black" stroke-width="3"/>
<path d="M13.2346 20.2322L24.5322 25.6654" stroke="black" stroke-width="3" stroke-linecap="round"/>
<path d="M36.7654 20.2322L25.4677 25.6654" stroke="black" stroke-width="3" stroke-linecap="round"/>
<path d="M25.1 26.3V39.2" stroke="black" stroke-width="3" stroke-linecap="round"/>
<path d="M6.09125 37.841L12.841 34.1088" stroke="black" stroke-width="3" stroke-linecap="round"/>
<path d="M43.8088 37.841L37.059 34.1088" stroke="black" stroke-width="3" stroke-linecap="round"/>
<path d="M25.1 4.20001V12.2" stroke="black" stroke-width="3" stroke-linecap="round"/>
<defs>
<radialGradient id="paint0_radial_1_17" cx="0" cy="0" r="1" gradientUnits="userSpaceOnUse" gradientTransform="translate(25 27) rotate(90) scale(25)">
<stop stop-color="#24FDAF"/>
<stop offset="1" stop-color="#93FF3F"/>
</radialGradient>
</defs>
</svg>
