<svg width="313" height="57" viewBox="0 0 313 57" fill="none" xmlns="http://www.w3.org/2000/svg">
<path d="M83.8359 32.6328C83.5703 36.3047 82.2109 39.1953 79.7578 41.3047C77.3203 43.4141 74.1016 44.4688 70.1016 44.4688C65.7266 44.4688 62.2812 43 59.7656 40.0625C57.2656 37.1094 56.0156 33.0625 56.0156 27.9219V25.8359C56.0156 22.5547 56.5938 19.6641 57.75 17.1641C58.9062 14.6641 60.5547 12.75 62.6953 11.4219C64.8516 10.0781 67.3516 9.40625 70.1953 9.40625C74.1328 9.40625 77.3047 10.4609 79.7109 12.5703C82.1172 14.6797 83.5078 17.6406 83.8828 21.4531H76.8516C76.6797 19.25 76.0625 17.6562 75 16.6719C73.9531 15.6719 72.3516 15.1719 70.1953 15.1719C67.8516 15.1719 66.0938 16.0156 64.9219 17.7031C63.7656 19.375 63.1719 21.9766 63.1406 25.5078V28.0859C63.1406 31.7734 63.6953 34.4688 64.8047 36.1719C65.9297 37.875 67.6953 38.7266 70.1016 38.7266C72.2734 38.7266 73.8906 38.2344 74.9531 37.25C76.0312 36.25 76.6484 34.7109 76.8047 32.6328H83.8359ZM86.9531 31.0859C86.9531 28.5703 87.4375 26.3281 88.4062 24.3594C89.375 22.3906 90.7656 20.8672 92.5781 19.7891C94.4062 18.7109 96.5234 18.1719 98.9297 18.1719C102.352 18.1719 105.141 19.2188 107.297 21.3125C109.469 23.4062 110.68 26.25 110.93 29.8438L110.977 31.5781C110.977 35.4688 109.891 38.5938 107.719 40.9531C105.547 43.2969 102.633 44.4688 98.9766 44.4688C95.3203 44.4688 92.3984 43.2969 90.2109 40.9531C88.0391 38.6094 86.9531 35.4219 86.9531 31.3906V31.0859ZM93.7266 31.5781C93.7266 33.9844 94.1797 35.8281 95.0859 37.1094C95.9922 38.375 97.2891 39.0078 98.9766 39.0078C100.617 39.0078 101.898 38.3828 102.82 37.1328C103.742 35.8672 104.203 33.8516 104.203 31.0859C104.203 28.7266 103.742 26.8984 102.82 25.6016C101.898 24.3047 100.602 23.6562 98.9297 23.6562C97.2734 23.6562 95.9922 24.3047 95.0859 25.6016C94.1797 26.8828 93.7266 28.875 93.7266 31.5781ZM114.094 31.1328C114.094 27.1797 114.977 24.0312 116.742 21.6875C118.523 19.3438 120.953 18.1719 124.031 18.1719C126.5 18.1719 128.539 19.0938 130.148 20.9375V8H136.945V44H130.828L130.5 41.3047C128.812 43.4141 126.641 44.4688 123.984 44.4688C121 44.4688 118.602 43.2969 116.789 40.9531C114.992 38.5938 114.094 35.3203 114.094 31.1328ZM120.867 31.625C120.867 34 121.281 35.8203 122.109 37.0859C122.938 38.3516 124.141 38.9844 125.719 38.9844C127.812 38.9844 129.289 38.1016 130.148 36.3359V26.3281C129.305 24.5625 127.844 23.6797 125.766 23.6797C122.5 23.6797 120.867 26.3281 120.867 31.625ZM153.867 44.4688C150.148 44.4688 147.117 43.3281 144.773 41.0469C142.445 38.7656 141.281 35.7266 141.281 31.9297V31.2734C141.281 28.7266 141.773 26.4531 142.758 24.4531C143.742 22.4375 145.133 20.8906 146.93 19.8125C148.742 18.7188 150.805 18.1719 153.117 18.1719C156.586 18.1719 159.312 19.2656 161.297 21.4531C163.297 23.6406 164.297 26.7422 164.297 30.7578V33.5234H148.148C148.367 35.1797 149.023 36.5078 150.117 37.5078C151.227 38.5078 152.625 39.0078 154.312 39.0078C156.922 39.0078 158.961 38.0625 160.43 36.1719L163.758 39.8984C162.742 41.3359 161.367 42.4609 159.633 43.2734C157.898 44.0703 155.977 44.4688 153.867 44.4688ZM153.094 23.6562C151.75 23.6562 150.656 24.1094 149.812 25.0156C148.984 25.9219 148.453 27.2188 148.219 28.9062H157.641V28.3672C157.609 26.8672 157.203 25.7109 156.422 24.8984C155.641 24.0703 154.531 23.6562 153.094 23.6562ZM168.609 44V9.875H180.562C184.703 9.875 187.844 10.6719 189.984 12.2656C192.125 13.8437 193.195 16.1641 193.195 19.2266C193.195 20.8984 192.766 22.375 191.906 23.6562C191.047 24.9219 189.852 25.8516 188.32 26.4453C190.07 26.8828 191.445 27.7656 192.445 29.0938C193.461 30.4219 193.969 32.0469 193.969 33.9688C193.969 37.25 192.922 39.7344 190.828 41.4219C188.734 43.1094 185.75 43.9688 181.875 44H168.609ZM175.641 29.1406V38.3516H181.664C183.32 38.3516 184.609 37.9609 185.531 37.1797C186.469 36.3828 186.938 35.2891 186.938 33.8984C186.938 30.7734 185.32 29.1875 182.086 29.1406H175.641ZM175.641 24.1719H180.844C184.391 24.1094 186.164 22.6953 186.164 19.9297C186.164 18.3828 185.711 17.2734 184.805 16.6016C183.914 15.9141 182.5 15.5703 180.562 15.5703H175.641V24.1719ZM197.766 31.0859C197.766 28.5703 198.25 26.3281 199.219 24.3594C200.188 22.3906 201.578 20.8672 203.391 19.7891C205.219 18.7109 207.336 18.1719 209.742 18.1719C213.164 18.1719 215.953 19.2188 218.109 21.3125C220.281 23.4062 221.492 26.25 221.742 29.8438L221.789 31.5781C221.789 35.4688 220.703 38.5938 218.531 40.9531C216.359 43.2969 213.445 44.4688 209.789 44.4688C206.133 44.4688 203.211 43.2969 201.023 40.9531C198.852 38.6094 197.766 35.4219 197.766 31.3906V31.0859ZM204.539 31.5781C204.539 33.9844 204.992 35.8281 205.898 37.1094C206.805 38.375 208.102 39.0078 209.789 39.0078C211.43 39.0078 212.711 38.3828 213.633 37.1328C214.555 35.8672 215.016 33.8516 215.016 31.0859C215.016 28.7266 214.555 26.8984 213.633 25.6016C212.711 24.3047 211.414 23.6562 209.742 23.6562C208.086 23.6562 206.805 24.3047 205.898 25.6016C204.992 26.8828 204.539 28.875 204.539 31.5781ZM235.102 26.2109L239.367 18.6406H246.609L239.391 31.0625L246.914 44H239.648L235.125 36.0312L230.625 44H223.336L230.859 31.0625L223.664 18.6406H230.93L235.102 26.2109ZM261.07 44.4688C257.352 44.4688 254.32 43.3281 251.977 41.0469C249.648 38.7656 248.484 35.7266 248.484 31.9297V31.2734C248.484 28.7266 248.977 26.4531 249.961 24.4531C250.945 22.4375 252.336 20.8906 254.133 19.8125C255.945 18.7188 258.008 18.1719 260.32 18.1719C263.789 18.1719 266.516 19.2656 268.5 21.4531C270.5 23.6406 271.5 26.7422 271.5 30.7578V33.5234H255.352C255.57 35.1797 256.227 36.5078 257.32 37.5078C258.43 38.5078 259.828 39.0078 261.516 39.0078C264.125 39.0078 266.164 38.0625 267.633 36.1719L270.961 39.8984C269.945 41.3359 268.57 42.4609 266.836 43.2734C265.102 44.0703 263.18 44.4688 261.07 44.4688ZM260.297 23.6562C258.953 23.6562 257.859 24.1094 257.016 25.0156C256.188 25.9219 255.656 27.2188 255.422 28.9062H264.844V28.3672C264.812 26.8672 264.406 25.7109 263.625 24.8984C262.844 24.0703 261.734 23.6562 260.297 23.6562ZM289.102 36.9922C289.102 36.1641 288.688 35.5156 287.859 35.0469C287.047 34.5625 285.734 34.1328 283.922 33.7578C277.891 32.4922 274.875 29.9297 274.875 26.0703C274.875 23.8203 275.805 21.9453 277.664 20.4453C279.539 18.9297 281.984 18.1719 285 18.1719C288.219 18.1719 290.789 18.9297 292.711 20.4453C294.648 21.9609 295.617 23.9297 295.617 26.3516H288.844C288.844 25.3828 288.531 24.5859 287.906 23.9609C287.281 23.3203 286.305 23 284.977 23C283.836 23 282.953 23.2578 282.328 23.7734C281.703 24.2891 281.391 24.9453 281.391 25.7422C281.391 26.4922 281.742 27.1016 282.445 27.5703C283.164 28.0234 284.367 28.4219 286.055 28.7656C287.742 29.0938 289.164 29.4688 290.32 29.8906C293.898 31.2031 295.688 33.4766 295.688 36.7109C295.688 39.0234 294.695 40.8984 292.711 42.3359C290.727 43.7578 288.164 44.4688 285.023 44.4688C282.898 44.4688 281.008 44.0938 279.352 43.3438C277.711 42.5781 276.422 41.5391 275.484 40.2266C274.547 38.8984 274.078 37.4688 274.078 35.9375H280.5C280.562 37.1406 281.008 38.0625 281.836 38.7031C282.664 39.3438 283.773 39.6641 285.164 39.6641C286.461 39.6641 287.438 39.4219 288.094 38.9375C288.766 38.4375 289.102 37.7891 289.102 36.9922Z" fill="black"/>
<path d="M24 2.57734C24.6188 2.22007 25.3812 2.22007 26 2.57734L45.6506 13.9227C46.2694 14.2799 46.6506 14.9402 46.6506 15.6547V38.3453C46.6506 39.0598 46.2694 39.7201 45.6506 40.0773L26 51.4227C25.3812 51.7799 24.6188 51.7799 24 51.4227L4.34936 40.0773C3.73056 39.7201 3.34937 39.0598 3.34937 38.3453V15.6547C3.34937 14.9402 3.73056 14.2799 4.34937 13.9226L24 2.57734Z" fill="url(#paint0_radial_85_3)"/>
<path d="M24 2.57734C24.6188 2.22007 25.3812 2.22007 26 2.57734L45.6506 13.9227C46.2694 14.2799 46.6506 14.9402 46.6506 15.6547V38.3453C46.6506 39.0598 46.2694 39.7201 45.6506 40.0773L26 51.4227C25.3812 51.7799 24.6188 51.7799 24 51.4227L4.34936 40.0773C3.73056 39.7201 3.34937 39.0598 3.34937 38.3453V15.6547C3.34937 14.9402 3.73056 14.2799 4.34937 13.9226L24 2.57734Z" stroke="black" stroke-width="3"/>
<path d="M24.5 3.44337C24.8094 3.26473 25.1906 3.26473 25.5 3.44337L45.1506 14.7887C45.46 14.9673 45.6506 15.2974 45.6506 15.6547V38.3453C45.6506 38.7026 45.46 39.0327 45.1506 39.2113L25.5 50.5566C25.1906 50.7353 24.8094 50.7353 24.5 50.5566L4.84936 39.2113C4.53996 39.0327 4.34937 38.7026 4.34937 38.3453V15.6547C4.34937 15.2974 4.53996 14.9673 4.84937 14.7887L24.5 3.44337Z" stroke="black" stroke-width="3"/>
<path d="M24.5 13.4434C24.8094 13.2647 25.1906 13.2647 25.5 13.4434L36.4904 19.7887C36.7998 19.9673 36.9904 20.2974 36.9904 20.6547V33.3453C36.9904 33.7026 36.7998 34.0327 36.4904 34.2113L25.5 40.5566C25.1906 40.7353 24.8094 40.7353 24.5 40.5566L13.5096 34.2113L13.0096 35.0773L13.5096 34.2113C13.2002 34.0327 13.0096 33.7026 13.0096 33.3453V20.6547C13.0096 20.2974 13.2002 19.9673 13.5096 19.7887L24.5 13.4434Z" stroke="black" stroke-width="3"/>
<path d="M13.2346 20.2322L24.5322 25.6654" stroke="black" stroke-width="3" stroke-linecap="round"/>
<path d="M36.7654 20.2322L25.4677 25.6654" stroke="black" stroke-width="3" stroke-linecap="round"/>
<path d="M25.1 26.3V39.2" stroke="black" stroke-width="3" stroke-linecap="round"/>
<path d="M6.09125 37.841L12.841 34.1088" stroke="black" stroke-width="3" stroke-linecap="round"/>
<path d="M43.8088 37.841L37.059 34.1088" stroke="black" stroke-width="3" stroke-linecap="round"/>
<path d="M25.1 4.20001V12.2" stroke="black" stroke-width="3" stroke-linecap="round"/>
<defs>
<radialGradient id="paint0_radial_85_3" cx="0" cy="0" r="1" gradientUnits="userSpaceOnUse" gradientTransform="translate(25 27) rotate(90) scale(25)">
<stop stop-color="#24FDAF"/>
<stop offset="1" stop-color="#93FF3F"/>
</radialGradient>
</defs>
</svg>
